<svg width="908" height="350" viewBox="0 0 908 350" fill="none" xmlns="http://www.w3.org/2000/svg">
<path d="M16.1687 128.834C16.3072 128.853 16.4456 128.872 16.5882 128.891C17.2727 128.993 17.8951 129.127 18.546 129.379C18.7731 129.454 19.0007 129.528 19.2285 129.601C19.3564 129.643 19.4843 129.684 19.616 129.726C19.7525 129.77 19.8889 129.813 20.0295 129.858C20.1741 129.905 20.3186 129.951 20.4675 129.999C21.3414 130.278 22.2172 130.548 23.0952 130.812C25.1267 131.425 27.1272 132.121 29.1273 132.837C29.3191 132.906 29.5109 132.974 29.7027 133.042C33.6575 134.449 33.6575 134.449 35.4916 135.221C36.1176 135.483 36.7433 135.703 37.3917 135.894C37.8535 136.042 38.2937 136.237 38.7396 136.43C39.2104 136.627 39.6865 136.805 40.1644 136.982C41.1961 137.365 41.1961 137.365 41.6837 137.592C42.0251 137.747 42.3505 137.877 42.7025 137.997C43.4537 138.253 44.1901 138.547 44.9284 138.841C45.3316 139.002 45.7341 139.159 46.1433 139.303C46.1433 139.402 46.1433 139.501 46.1433 139.604C46.2299 139.617 46.3165 139.63 46.4058 139.643C47.0654 139.759 47.6267 139.907 48.2166 140.243C48.8864 140.622 49.5681 140.865 50.29 141.107C51.1191 141.386 51.8827 141.692 52.651 142.127C53.2568 142.439 53.8967 142.652 54.5334 142.883C55.0318 143.071 55.5089 143.285 55.989 143.518C56.4346 143.729 56.89 143.912 57.3463 144.096C57.6582 144.235 57.9534 144.385 58.2545 144.547C58.9084 144.895 59.5816 145.178 60.2636 145.458C60.5184 145.564 60.7731 145.67 61.0277 145.776C61.1492 145.827 61.2707 145.877 61.3958 145.929C61.8072 146.102 62.2153 146.282 62.623 146.464C63.2664 146.749 63.9165 147.008 64.5712 147.263C65.3016 147.546 66.02 147.847 66.734 148.174C67.7084 148.62 68.696 149.017 69.6934 149.401C70.0533 149.539 70.4125 149.68 70.7718 149.82C72.262 150.399 73.7573 150.943 75.276 151.434C76.1695 151.723 77.0536 152.041 77.9381 152.359C79.3829 152.877 80.8292 153.372 82.3021 153.794C82.4268 153.83 82.5514 153.866 82.6798 153.903C83.4048 154.106 84.1311 154.277 84.8682 154.424C85.4051 154.537 85.9269 154.695 86.4427 154.888C88.1819 155.535 89.9798 155.889 91.8062 156.124C92.45 156.211 93.0639 156.332 93.6912 156.509C94.7248 156.79 95.7673 156.94 96.8247 157.084C97.1546 157.129 97.4841 157.177 97.8136 157.225C101.347 157.726 104.901 157.849 108.463 157.837C108.94 157.835 109.416 157.836 109.893 157.838C119.27 157.866 128.613 155.87 137.515 152.836C137.618 152.801 137.722 152.766 137.829 152.73C139.528 152.163 141.199 151.513 142.871 150.861C143.621 150.569 144.37 150.278 145.133 150.023C145.662 149.875 145.662 149.875 145.951 149.528C146.177 149.43 146.407 149.343 146.638 149.261C146.848 149.187 146.848 149.187 147.061 149.11C147.282 149.033 147.282 149.033 147.506 148.954C148.678 148.542 149.82 148.086 150.956 147.573C151.117 147.501 151.277 147.428 151.443 147.354C152.127 147.046 152.811 146.736 153.494 146.426C154.348 146.04 155.203 145.661 156.067 145.302C156.573 145.09 157.075 144.87 157.578 144.65C158.46 144.266 159.347 143.899 160.239 143.542C161.49 143.046 161.49 143.046 162.694 142.439C162.967 142.31 162.967 142.31 163.539 142.31C163.539 142.211 163.539 142.112 163.539 142.009C163.647 141.967 163.754 141.925 163.865 141.882C164.733 141.537 165.587 141.176 166.435 140.778C168.531 139.799 170.668 138.902 172.835 138.112C173.277 137.944 173.706 137.758 174.138 137.564C174.686 137.319 175.232 137.105 175.8 136.916C176.477 136.687 177.12 136.406 177.767 136.098C178.879 135.571 180.017 135.15 181.17 134.736C181.724 134.536 182.271 134.322 182.816 134.097C183.698 133.735 184.591 133.42 185.49 133.111C185.919 132.962 186.347 132.811 186.775 132.66C186.942 132.601 187.11 132.542 187.282 132.482C187.615 132.365 187.947 132.248 188.279 132.13C189.954 131.541 191.644 131.005 193.337 130.476C193.906 130.297 194.473 130.116 195.037 129.922C196.164 129.533 197.271 129.24 198.441 129.029C198.734 128.976 199.027 128.921 199.317 128.85C200.358 128.599 201.367 128.582 202.433 128.589C202.605 128.588 202.778 128.587 202.955 128.586C204.551 128.59 205.906 128.908 207.41 129.445C207.541 129.49 207.672 129.535 207.807 129.581C209.071 130.027 209.071 130.027 209.582 130.431C209.582 130.531 209.582 130.63 209.582 130.732C209.863 130.881 210.144 131.028 210.431 131.163C212.331 132.139 213.814 134.157 214.64 136.159C214.73 136.446 214.73 136.446 214.73 136.897C214.824 136.897 214.919 136.897 215.016 136.897C215.085 137.103 215.153 137.31 215.221 137.517C215.279 137.69 215.279 137.69 215.337 137.866C216.221 141.016 215.5 144.538 214.113 147.375C213.638 148.275 213.08 149.05 212.442 149.828C212.323 149.986 212.323 149.986 212.202 150.146C211.534 151.01 210.743 151.615 209.868 152.234C209.787 152.293 209.706 152.351 209.622 152.411C207.901 153.648 207.901 153.648 206.902 153.939C206.508 154.06 206.143 154.225 205.766 154.396C204.971 154.75 204.166 155.06 203.351 155.36C203.005 155.489 202.663 155.621 202.321 155.758C201.637 156.028 200.945 156.269 200.252 156.51C199.948 156.616 199.645 156.722 199.342 156.828C199.175 156.886 199.008 156.944 198.837 157.004C197.888 157.335 196.941 157.667 195.993 158C195.564 158.15 195.135 158.3 194.707 158.451C194.5 158.523 194.293 158.596 194.086 158.668C193.536 158.861 192.985 159.054 192.435 159.245C192.319 159.286 192.203 159.326 192.084 159.368C191.862 159.445 191.64 159.522 191.419 159.599C190.759 159.829 190.114 160.083 189.472 160.364C188.941 160.585 188.398 160.767 187.855 160.951C187.323 161.139 186.799 161.347 186.275 161.557C186.092 161.628 185.91 161.7 185.728 161.772C185.243 161.962 184.759 162.154 184.275 162.345C184.009 162.45 183.742 162.554 183.476 162.658C182.637 162.989 181.84 163.354 181.045 163.786C180.699 163.962 180.355 164.101 179.992 164.235C177.671 165.097 175.474 166.204 173.336 167.483C173.221 167.552 173.105 167.621 172.986 167.692C172.882 167.755 172.777 167.818 172.669 167.883C172.404 168.022 172.404 168.022 172.118 168.022C172.071 168.171 172.024 168.32 171.975 168.473C171.599 168.752 171.233 168.936 170.805 169.112C170.075 169.432 169.465 169.941 168.83 170.428C168.707 170.518 168.585 170.608 168.459 170.701C167.268 171.585 166.032 172.563 165.032 173.686C164.826 173.886 164.826 173.886 164.54 173.886C164.54 173.986 164.54 174.085 164.54 174.187C164.335 174.394 164.335 174.394 164.048 174.638C163.333 175.28 162.721 175.994 162.109 176.743C161.947 176.942 161.947 176.942 161.782 177.144C161.006 178.116 160.329 179.134 159.678 180.202C159.591 180.341 159.504 180.481 159.415 180.625C158.46 182.173 157.672 183.778 156.961 185.464C156.901 185.606 156.841 185.748 156.779 185.894C156.321 187.008 155.955 188.146 155.6 189.299C155.471 189.717 155.335 190.127 155.19 190.539C154.683 192.001 154.471 193.44 154.297 194.98C154.261 195.256 154.219 195.53 154.171 195.803C153.89 197.426 153.902 199.045 153.905 200.689C153.905 200.844 153.905 200.998 153.905 201.158C153.906 203.209 153.978 205.232 154.227 207.267C154.245 207.42 154.245 207.42 154.264 207.576C154.387 208.552 154.544 209.484 154.817 210.425C154.873 210.791 154.927 211.157 154.977 211.524C155.35 213.931 156.095 216.333 157.06 218.547C157.313 219.153 157.5 219.774 157.682 220.406C157.83 220.83 158.024 221.166 158.248 221.552C158.472 222.009 158.685 222.471 158.901 222.933C160.188 225.662 161.61 228.297 163.28 230.788C163.529 231.159 163.774 231.532 164.019 231.906C164.901 233.245 165.797 234.561 166.77 235.83C167.829 237.24 167.829 237.24 167.829 237.641C167.923 237.641 168.017 237.641 168.115 237.641C168.311 237.905 168.506 238.172 168.693 238.444C169.024 238.917 169.368 239.379 169.714 239.84C169.852 240.023 169.99 240.207 170.128 240.391C170.197 240.483 170.267 240.576 170.338 240.671C170.539 240.939 170.738 241.209 170.937 241.478C171.671 242.473 172.427 243.439 173.213 244.389C173.778 245.078 174.299 245.795 174.812 246.528C175.23 247.116 175.671 247.68 176.116 248.245C176.212 248.368 176.309 248.491 176.408 248.617C176.515 248.751 176.622 248.884 176.732 249.022C176.98 249.369 176.98 249.369 176.98 249.67C177.122 249.719 177.263 249.769 177.409 249.82C177.636 250.079 177.636 250.079 177.892 250.431C177.992 250.567 178.093 250.703 178.196 250.843C178.252 250.919 178.309 250.995 178.367 251.074C178.723 251.551 179.09 252.019 179.456 252.489C180.051 253.256 180.638 254.029 181.216 254.81C181.852 255.668 182.513 256.5 183.184 257.327C183.748 258.023 184.297 258.732 184.845 259.443C184.91 259.527 184.975 259.611 185.042 259.698C188.182 263.761 190.582 267.442 190.191 272.939C189.946 275.085 189.074 276.981 187.847 278.69C187.79 278.77 187.733 278.85 187.674 278.933C186.64 280.367 186.64 280.367 185.989 280.644C185.989 280.744 185.989 280.843 185.989 280.945C185.677 281.178 185.366 281.393 185.041 281.603C184.864 281.72 184.686 281.837 184.508 281.954C184.421 282.012 184.333 282.069 184.242 282.128C184.003 282.287 183.769 282.455 183.535 282.623C181.317 284.134 177.844 284.319 175.304 283.886C172.515 283.258 170.183 281.753 168.115 279.742C167.988 279.641 167.86 279.54 167.729 279.436C167.368 279.112 167.207 278.82 166.971 278.389C166.692 278.008 166.397 277.64 166.104 277.271C165.427 276.407 164.787 275.527 164.177 274.611C163.75 273.973 163.301 273.363 162.832 272.759C162.492 272.314 162.162 271.861 161.832 271.406C161.272 270.636 160.696 269.88 160.108 269.132C160.014 269.011 159.919 268.89 159.821 268.766C159.715 268.632 159.608 268.499 159.498 268.362C159.249 268.014 159.249 268.014 159.249 267.713C159.164 267.675 159.079 267.637 158.991 267.598C158.636 267.388 158.479 267.192 158.239 266.849C158.153 266.728 158.068 266.608 157.979 266.484C157.879 266.344 157.779 266.204 157.676 266.059C157.419 265.707 157.159 265.356 156.899 265.007C156.831 264.916 156.764 264.825 156.694 264.731C156.221 264.099 155.724 263.496 155.21 262.9C154.977 262.621 154.766 262.337 154.557 262.037C154.112 261.397 153.624 260.796 153.134 260.193C152.715 259.676 152.302 259.154 151.894 258.626C151.335 257.903 150.761 257.194 150.183 256.488C149.684 255.878 149.188 255.265 148.695 254.65C147.477 253.135 146.214 251.669 144.932 250.214C144.783 250.045 144.634 249.876 144.485 249.707C144.376 249.583 144.376 249.583 144.265 249.457C143.879 249.017 143.499 248.573 143.127 248.119C142.283 247.096 141.352 246.187 140.374 245.309C140.209 245.159 140.043 245.008 139.877 244.858C139.697 244.695 139.518 244.532 139.338 244.369C139.252 244.291 139.165 244.213 139.077 244.132C138.733 243.822 138.395 243.521 138.026 243.244C137.952 243.181 137.877 243.118 137.801 243.054C137.801 242.954 137.801 242.855 137.801 242.753C137.717 242.735 137.634 242.718 137.547 242.7C137.208 242.596 136.99 242.46 136.702 242.247C136.605 242.176 136.507 242.104 136.407 242.031C136.307 241.956 136.206 241.881 136.103 241.804C135.903 241.657 135.704 241.51 135.505 241.364C135.41 241.293 135.315 241.222 135.217 241.15C134.961 240.964 134.702 240.788 134.439 240.613C134.322 240.525 134.204 240.438 134.083 240.347C134.083 240.248 134.083 240.149 134.083 240.046C133.937 240.028 133.937 240.028 133.788 240.009C133.243 239.862 132.847 239.602 132.367 239.295C132.367 239.195 132.367 239.096 132.367 238.994C131.989 238.895 131.612 238.795 131.223 238.693C131.223 238.594 131.223 238.495 131.223 238.392C131.068 238.369 131.068 238.369 130.91 238.345C130.464 238.231 130.187 238.039 129.793 237.791C129.45 237.638 129.104 237.497 128.756 237.356C128.351 237.184 127.955 236.997 127.559 236.804C126.699 236.389 125.845 236.043 124.933 235.773C124.622 235.679 124.312 235.58 124.002 235.48C122.651 235.046 121.3 234.641 119.926 234.297C119.498 234.182 119.498 234.182 119.212 234.032C118.804 233.968 118.397 233.91 117.988 233.858C117.804 233.834 117.804 233.834 117.616 233.809C117.355 233.775 117.094 233.741 116.833 233.707C116.438 233.657 116.044 233.605 115.65 233.553C113.686 233.296 111.765 233.099 109.783 233.101C109.635 233.101 109.635 233.101 109.485 233.101C108.043 233.103 106.61 233.153 105.172 233.261C105.014 233.273 104.857 233.285 104.695 233.297C103.287 233.414 101.893 233.614 100.518 233.952C100.148 234.043 99.7773 234.124 99.4058 234.206C97.629 234.607 95.901 235.097 94.1793 235.705C94.0887 235.736 93.9981 235.768 93.9047 235.801C92.4729 236.306 91.1207 236.909 89.7734 237.622C89.6756 237.673 89.5778 237.725 89.477 237.778C88.7509 238.162 88.0373 238.567 87.3303 238.989C87.0387 239.144 87.0387 239.144 86.7527 239.144C86.7527 239.243 86.7527 239.343 86.7527 239.445C86.6086 239.505 86.4645 239.565 86.3159 239.627C85.743 239.886 85.2455 240.221 84.733 240.591C84.6402 240.658 84.5474 240.724 84.4518 240.792C84.2614 240.929 84.0711 241.065 83.8812 241.202C83.6287 241.384 83.3746 241.563 83.1199 241.741C81.9731 242.553 80.9226 243.445 79.8892 244.407C79.7513 244.535 79.6134 244.663 79.4714 244.795C77.8346 246.346 76.209 247.951 74.8554 249.785C74.5985 250.121 74.5985 250.121 74.2879 250.438C73.994 250.717 73.994 250.717 73.8835 251.173C73.7892 251.173 73.6948 251.173 73.5976 251.173C73.5504 251.322 73.5032 251.471 73.4546 251.624C73.258 251.79 73.0613 251.955 72.8642 252.119C72.3985 252.566 72.0242 253.093 71.632 253.61C71.2687 254.084 70.8869 254.535 70.4964 254.984C70.2779 255.245 70.2779 255.245 70.1658 255.684C70.001 255.862 69.8354 256.04 69.6653 256.213C68.9242 256.984 68.2815 257.851 67.6366 258.71C67.5703 258.798 67.504 258.886 67.4357 258.977C67.135 259.381 66.8538 259.782 66.5882 260.213C66.2915 260.667 65.9654 261.014 65.59 261.398C65.3155 261.715 65.0503 262.04 64.7857 262.366C64.7115 262.457 64.6372 262.549 64.5607 262.643C63.4336 264.039 62.3782 265.492 61.3366 266.96C60.9871 267.451 60.6355 267.94 60.2815 268.427C60.172 268.579 60.0625 268.73 59.9497 268.886C59.6768 269.253 59.3892 269.604 59.0951 269.953C58.6054 270.536 58.153 271.142 57.7077 271.764C57.5453 271.988 57.383 272.213 57.2206 272.438C57.1386 272.552 57.0565 272.666 56.972 272.783C56.3455 273.652 55.7151 274.519 55.0833 275.384C54.8794 275.664 54.6769 275.945 54.4747 276.226C52.1502 279.434 49.6334 281.91 46.0092 283.342C45.8976 283.386 45.786 283.43 45.671 283.476C43.0706 284.458 39.3134 284.335 36.7684 283.172C36.6062 283.082 36.444 282.993 36.2769 282.9C36.2769 282.801 36.2769 282.701 36.2769 282.599C36.097 282.553 35.9171 282.506 35.7317 282.458C33.6449 281.716 31.8896 279.278 30.8432 277.336C30.7862 277.233 30.7293 277.13 30.6706 277.024C29.3982 274.558 29.1593 271.012 29.8423 268.315C29.8718 268.184 29.9012 268.054 29.9316 267.919C30.6869 264.747 32.5171 262.291 34.3553 259.73C34.6391 259.334 34.9218 258.938 35.2044 258.541C35.3064 258.398 35.4083 258.255 35.5133 258.108C35.7619 257.759 36.0103 257.411 36.2584 257.061C37.2741 255.634 38.303 254.218 39.34 252.807C40.2108 251.621 41.0678 250.425 41.921 249.224C42.1349 248.924 42.3496 248.625 42.5646 248.325C43.5513 246.949 44.516 245.558 45.4721 244.159C45.7272 243.786 45.9834 243.415 46.2399 243.043C46.3254 242.919 46.411 242.795 46.4991 242.667C46.664 242.428 46.829 242.189 46.9942 241.95C47.068 241.843 47.1418 241.736 47.2179 241.625C47.2832 241.531 47.3485 241.436 47.4158 241.339C47.5828 241.096 47.5828 241.096 47.7162 240.798C47.8105 240.798 47.9049 240.798 48.0021 240.798C48.0361 240.694 48.07 240.59 48.1049 240.483C48.3224 239.965 48.6139 239.531 48.9316 239.078C49.0606 238.891 49.1896 238.704 49.3187 238.517C49.3848 238.422 49.4509 238.326 49.519 238.228C50.4372 236.905 51.3257 235.574 52.1489 234.182C52.3154 233.906 52.4822 233.631 52.6493 233.355C52.7323 233.218 52.8152 233.08 52.9007 232.939C53.0625 232.672 53.2256 232.406 53.39 232.141C54.1262 230.948 54.7846 229.713 55.4377 228.468C55.5144 228.322 55.591 228.176 55.67 228.026C55.8802 227.623 56.0883 227.219 56.2956 226.814C56.3435 226.721 56.3913 226.628 56.4406 226.532C56.5982 226.226 56.7553 225.919 56.9123 225.611C56.9623 225.514 57.0124 225.417 57.064 225.316C57.2674 224.917 57.4459 224.539 57.5825 224.108C57.6769 224.108 57.7713 224.108 57.8685 224.108C57.8803 223.984 57.8921 223.86 57.9043 223.732C57.9946 223.289 58.083 223.03 58.2796 222.642C58.5574 222.087 58.7224 221.543 58.8829 220.94C59.0087 220.512 59.1566 220.097 59.312 219.68C59.7316 218.553 60.0606 217.424 60.337 216.249C60.4717 215.678 60.619 215.123 60.806 214.568C61.0389 213.852 61.1485 213.137 61.2467 212.389C61.2809 212.137 61.3155 211.885 61.3506 211.633C61.3651 211.523 61.3796 211.414 61.3945 211.301C61.4433 211.026 61.4433 211.026 61.5863 210.725C61.616 210.495 61.6388 210.264 61.6578 210.032C61.6696 209.894 61.6814 209.756 61.6935 209.613C61.7053 209.469 61.7171 209.324 61.7293 209.175C61.7528 208.89 61.7766 208.606 61.8008 208.321C61.8111 208.195 61.8214 208.069 61.8321 207.938C61.8723 207.568 61.8723 207.568 61.9448 207.218C62.0159 206.813 62.0353 206.441 62.0383 206.029C62.0404 205.798 62.0404 205.798 62.0425 205.563C62.0431 205.397 62.0437 205.231 62.0443 205.06C62.0451 204.886 62.0459 204.713 62.0468 204.533C62.0481 204.164 62.0491 203.794 62.0496 203.424C62.051 202.872 62.0554 202.319 62.06 201.766C62.0787 197.393 61.6328 192.631 59.9475 188.57C59.7765 188.143 59.6499 187.752 59.5325 187.309C59.2902 186.435 58.9352 185.634 58.5567 184.816C58.4868 184.664 58.417 184.512 58.3451 184.356C57.8178 183.224 57.247 182.153 56.5816 181.104C56.4861 180.949 56.3906 180.793 56.2923 180.633C55.7132 179.701 55.1015 178.812 54.4367 177.946C54.34 177.817 54.2432 177.687 54.1435 177.553C53.3493 176.504 52.4893 175.572 51.5769 174.638C51.3994 174.451 51.3994 174.451 51.2183 174.261C49.735 172.703 48.1371 171.401 46.4292 170.127C46.3373 170.058 46.2453 169.988 46.1506 169.916C44.6507 168.786 43.0385 167.913 41.3955 167.036C41.0325 166.839 40.6738 166.636 40.3164 166.429C38.5545 165.41 36.7242 164.616 34.8541 163.842C34.231 163.584 33.6096 163.322 32.9881 163.06C32.9881 162.961 32.9881 162.862 32.9881 162.76C32.8021 162.747 32.6161 162.734 32.4245 162.721C31.6809 162.634 31.0909 162.368 30.4232 162.027C29.646 161.646 28.8982 161.305 28.0677 161.073C27.2085 160.799 26.382 160.412 25.5525 160.053C25.5525 159.954 25.5525 159.855 25.5525 159.752C25.3874 159.746 25.2222 159.74 25.0521 159.733C24.1827 159.632 23.4069 159.282 22.5994 158.951C21.993 158.702 21.3803 158.481 20.7623 158.267C20.6584 158.231 20.5545 158.195 20.4474 158.158C20.224 158.081 20.0006 158.004 19.7772 157.927C19.0504 157.675 18.3246 157.422 17.5986 157.168C17.4546 157.118 17.3105 157.068 17.1621 157.016C16.5652 156.808 15.9709 156.598 15.384 156.36C14.7537 156.107 14.1088 155.916 13.4608 155.721C12.2124 155.335 11.0185 154.881 9.8235 154.339C9.68286 154.276 9.54222 154.212 9.39732 154.147C6.35625 152.735 3.9044 150.862 1.95899 148.024C1.87494 147.912 1.79089 147.799 1.70429 147.683C-0.00797965 145.276 -0.201433 141.517 0.141369 138.658C0.724621 135.358 2.96507 132.743 5.48015 130.845C8.71403 128.669 12.4514 128.325 16.1687 128.834Z" fill="black"/>
<path d="M112.765 71.4411C112.765 71.5404 112.765 71.6397 112.765 71.742C112.853 71.7592 112.941 71.7765 113.032 71.7943C115.237 72.4405 116.707 75.1389 117.729 77.0072C118.579 78.5924 119.161 80.2547 119.685 81.9716C119.724 82.1002 119.764 82.2287 119.804 82.3612C120.272 83.9017 120.679 85.4304 120.942 87.0194C121.029 87.536 121.029 87.536 121.184 88.0192C121.348 88.6202 121.442 89.2135 121.518 89.8301C121.533 89.95 121.548 90.07 121.564 90.1935C121.596 90.449 121.628 90.7046 121.659 90.9602C121.704 91.3306 121.752 91.7008 121.799 92.071C121.886 92.754 121.964 93.4377 122.039 94.1221C122.076 94.46 122.114 94.7978 122.152 95.1355C122.577 98.9294 122.603 102.701 122.583 106.515C122.58 107.153 122.579 107.792 122.579 108.43C122.578 109.206 122.576 109.983 122.574 110.759C122.573 110.902 122.573 111.044 122.573 111.19C122.566 113.983 122.453 116.765 122.205 119.548C122.176 119.88 122.148 120.213 122.121 120.545C122.102 120.761 122.083 120.977 122.064 121.192C122.048 121.382 122.031 121.571 122.015 121.766C121.943 122.275 121.809 122.708 121.641 123.191C121.597 123.43 121.561 123.671 121.534 123.913C121.517 124.046 121.501 124.18 121.484 124.317C121.468 124.457 121.451 124.598 121.434 124.742C121.26 126.096 121.009 127.4 120.672 128.721C120.579 129.091 120.493 129.462 120.408 129.834C119.927 131.929 119.44 134.042 118.481 135.978C118.396 136.155 118.311 136.332 118.224 136.515C117.152 138.731 116.027 140.705 114.269 142.447C114.174 142.547 114.079 142.647 113.981 142.75C113.354 143.363 112.638 143.754 111.862 144.149C111.762 144.199 111.662 144.25 111.559 144.303C109.475 145.314 107.091 145.257 104.897 144.603C103.25 144.009 101.967 143.045 100.88 141.695C100.809 141.625 100.738 141.556 100.664 141.485C99.3231 140.107 98.4493 138.239 97.6631 136.507C97.5096 136.172 97.3497 135.841 97.1812 135.514C96.9697 135.077 96.8236 134.657 96.687 134.192C96.5286 133.657 96.3689 133.124 96.1934 132.595C95.7765 131.33 95.4452 130.055 95.145 128.757C95.1087 128.6 95.0724 128.443 95.0349 128.282C94.9234 127.789 94.8168 127.296 94.7125 126.801C94.6751 126.624 94.6376 126.447 94.599 126.265C94.2763 124.65 94.0847 123.028 93.9141 121.39C93.8668 120.939 93.8173 120.488 93.7676 120.037C93.3299 115.974 93.3229 111.909 93.321 107.828C93.3209 107.694 93.3207 107.56 93.3206 107.422C93.3177 104.07 93.3333 100.727 93.5655 97.3818C93.575 97.2427 93.5845 97.1036 93.5942 96.9603C93.6214 96.577 93.6508 96.1941 93.6818 95.8111C93.6901 95.7046 93.6985 95.5982 93.707 95.4885C93.7633 94.8666 93.8815 94.2875 94.0409 93.6865C94.1383 93.2938 94.1856 92.9023 94.2283 92.5003C94.2464 92.3366 94.2644 92.1728 94.283 92.0041C94.3006 91.8364 94.3183 91.6688 94.3364 91.496C94.5528 89.4762 94.8479 87.4986 95.2955 85.5162C95.335 85.3397 95.3744 85.1632 95.4151 84.9813C95.6911 83.7639 95.993 82.5612 96.3673 81.3698C96.4666 81.3698 96.5659 81.3698 96.6682 81.3698C96.6829 81.2787 96.6977 81.1876 96.7129 81.0937C97.0024 79.4713 97.6639 78.1298 98.4734 76.7063C98.5506 76.5621 98.6278 76.4178 98.7073 76.2691C100.248 73.4676 102.732 71.0907 105.85 70.1583C108.356 69.5554 110.595 70.1129 112.765 71.4411Z" fill="black"/>
<path d="M459.863 135.035C458.3 119.994 452.831 109.153 443.455 102.512C434.274 95.6753 422.457 92.257 408.002 92.257C402.142 92.257 396.38 92.843 390.715 94.015C385.05 95.187 379.972 97.1403 375.479 99.875C371.182 102.61 367.666 106.321 364.931 111.009C362.392 115.502 361.122 121.166 361.122 128.003C361.122 134.449 362.978 139.723 366.689 143.825C370.596 147.732 375.674 150.955 381.925 153.494C388.371 156.033 395.598 158.182 403.607 159.94C411.616 161.503 419.722 163.261 427.926 165.214C436.325 167.167 444.529 169.511 452.538 172.246C460.547 174.785 467.676 178.301 473.927 182.794C480.373 187.287 485.452 192.951 489.163 199.788C493.07 206.625 495.023 215.219 495.023 225.572C495.023 236.706 492.484 246.277 487.405 254.286C482.522 262.099 476.173 268.545 468.36 273.624C460.547 278.507 451.757 282.023 441.99 284.172C432.419 286.516 422.847 287.688 413.276 287.688C401.556 287.688 390.422 286.223 379.874 283.293C369.521 280.363 360.341 275.968 352.332 270.108C344.519 264.053 338.268 256.435 333.58 247.254C329.087 237.878 326.841 226.842 326.841 214.145H353.211C353.211 222.935 354.871 230.553 358.192 236.999C361.708 243.25 366.201 248.426 371.67 252.528C377.335 256.63 383.878 259.658 391.301 261.611C398.724 263.564 406.342 264.541 414.155 264.541C420.406 264.541 426.656 263.955 432.907 262.783C439.353 261.611 445.115 259.658 450.194 256.923C455.273 253.993 459.375 250.086 462.5 245.203C465.625 240.32 467.188 234.069 467.188 226.451C467.188 219.224 465.235 213.364 461.328 208.871C457.617 204.378 452.538 200.765 446.092 198.03C439.841 195.1 432.712 192.756 424.703 190.998C416.694 189.24 408.49 187.482 400.091 185.724C391.887 183.771 383.781 181.622 375.772 179.278C367.763 176.739 360.536 173.516 354.09 169.609C347.839 165.507 342.761 160.331 338.854 154.08C335.143 147.634 333.287 139.625 333.287 130.054C333.287 119.506 335.436 110.423 339.733 102.805C344.03 94.9917 349.695 88.6433 356.727 83.76C363.954 78.6813 372.061 74.97 381.046 72.626C390.227 70.0867 399.603 68.817 409.174 68.817C419.917 68.817 429.879 70.0867 439.06 72.626C448.241 75.1653 456.249 79.1697 463.086 84.639C470.118 90.1083 475.587 97.0427 479.494 105.442C483.596 113.646 485.842 123.51 486.233 135.035H459.863ZM559.318 131.519H589.497V153.494H559.318V247.547C559.318 250.477 559.514 252.821 559.904 254.579C560.49 256.337 561.467 257.704 562.834 258.681C564.202 259.658 566.057 260.341 568.401 260.732C570.941 260.927 574.164 261.025 578.07 261.025H589.497V283H570.452C564.006 283 558.439 282.609 553.751 281.828C549.259 280.851 545.547 279.191 542.617 276.847C539.883 274.503 537.832 271.182 536.464 266.885C535.097 262.588 534.413 256.923 534.413 249.891V153.494H508.629V131.519H534.413V86.104H559.318V131.519ZM676.644 303.217C673.714 310.64 670.784 316.89 667.854 321.969C665.119 327.048 661.994 331.15 658.478 334.275C655.157 337.596 651.348 339.94 647.051 341.307C642.949 342.87 638.163 343.651 632.694 343.651C629.764 343.651 626.834 343.456 623.904 343.065C620.974 342.674 618.142 341.991 615.407 341.014V318.16C617.556 319.137 619.997 319.918 622.732 320.504C625.662 321.285 628.104 321.676 630.057 321.676C635.136 321.676 639.335 320.406 642.656 317.867C646.172 315.523 648.809 312.105 650.567 307.612L660.822 282.121L600.757 131.519H628.885L673.128 255.458H673.714L716.199 131.519H742.569L676.644 303.217ZM765.13 73.798H790.035V283H765.13V73.798ZM827.738 131.519H851.178V163.456H851.764C857.82 151.15 865.242 142.067 874.032 136.207C882.822 130.347 893.956 127.612 907.434 128.003V154.373C897.472 154.373 888.975 155.74 881.943 158.475C874.911 161.21 869.247 165.214 864.949 170.488C860.652 175.762 857.527 182.208 855.573 189.826C853.62 197.249 852.643 205.843 852.643 215.61V283H827.738V131.519Z" fill="black"/>
</svg>
